<svg version="1.1" id="Layer_1" xmlns="http://www.w3.org/2000/svg" xmlns:xlink="http://www.w3.org/1999/xlink" x="0px" y="0px"
	 width="100%" viewBox="0 0 1575 393" enable-background="new 0 0 1575 393" xml:space="preserve">
<path fill="#FEB600" opacity="1.000000" stroke="none" 
	d="
M1182.000000,394.000000 
	C788.392212,394.000000 394.784454,394.000000 1.088343,394.000000 
	C1.088343,263.078552 1.088343,132.157013 1.088343,1.000000 
	C394.362671,1.000000 787.725403,1.000000 1181.544067,1.466042 
	C1182.000000,132.621384 1182.000000,263.310699 1182.000000,394.000000 
M339.009735,235.931854 
	C339.301666,240.209656 340.292938,244.579514 339.744415,248.746674 
	C338.484741,258.316284 331.268188,263.040588 321.789032,261.239014 
	C313.058868,259.579773 308.974487,254.172409 308.571198,243.408142 
	C308.393829,238.674255 308.541321,233.928223 308.541321,229.245361 
	C294.458313,229.245361 281.187317,229.245361 267.470917,229.245361 
	C267.470917,235.953400 267.249146,242.429688 267.511627,248.886292 
	C268.372253,270.055267 279.306030,284.487518 299.514069,291.099976 
	C310.741425,294.773773 322.360046,296.082001 334.015533,294.284668 
	C341.336426,293.155731 348.868256,291.590607 355.562469,288.572906 
	C370.007721,282.061066 377.895599,269.918457 380.289246,254.509293 
	C383.272888,235.302032 383.326324,216.098953 369.224976,200.770493 
	C362.726837,193.706833 353.924957,188.639557 345.783417,183.247101 
	C338.448395,178.388840 330.493774,174.476730 322.992737,169.854645 
	C317.667084,166.572983 313.193298,162.361847 311.534485,155.937790 
	C309.127899,146.617737 313.277100,138.520645 321.446533,136.643036 
	C330.735840,134.508057 337.498932,139.016281 339.430267,149.069977 
	C340.235962,153.264160 340.202362,157.619553 340.575897,162.215378 
	C353.999969,162.215378 367.386261,162.215378 380.955170,162.215378 
	C381.161346,161.039291 381.490387,160.067535 381.470917,159.102829 
	C381.413910,156.279388 381.339661,153.446503 381.057159,150.638962 
	C379.030243,130.497665 369.912262,115.083588 350.494720,107.546303 
	C333.029510,100.766853 315.235046,101.270752 297.841309,108.184341 
	C287.006683,112.490822 279.106506,120.248589 274.764557,131.137115 
	C266.869293,150.936493 266.660461,182.431564 292.608276,200.541473 
	C303.368561,208.051483 315.033264,214.269409 325.755219,221.828735 
	C330.748474,225.349136 334.475281,230.665848 339.009735,235.931854 
M915.462097,315.500061 
	C915.462097,262.103485 915.462097,208.706894 915.462097,155.324173 
	C902.684570,155.324173 890.614929,155.324173 877.922363,155.324173 
	C877.922363,160.426804 877.922363,165.218048 877.922363,170.603287 
	C875.514648,167.557205 873.773804,165.103806 871.782288,162.874420 
	C853.560791,142.476822 822.861816,148.605545 814.505188,174.528870 
	C812.489929,180.780533 811.309998,187.544708 811.154846,194.106506 
	C810.713623,212.758392 810.524658,231.445145 811.216553,250.081772 
	C811.526062,258.418121 813.078064,267.077606 815.984985,274.875122 
	C823.120422,294.014984 843.078613,301.246765 861.015137,291.587128 
	C866.081177,288.858826 870.219299,284.407318 875.145752,280.455048 
	C875.145752,299.458130 875.145752,318.346161 875.145752,337.156006 
	C888.738831,337.156006 901.836853,337.156006 915.462341,337.156006 
	C915.462341,330.073761 915.462341,323.286896 915.462097,315.500061 
M727.000549,250.342285 
	C727.000549,243.404739 727.000549,236.467209 727.000549,229.016632 
	C749.631104,229.016632 771.679565,229.016632 794.000549,229.016632 
	C794.000549,216.022781 794.056030,203.549500 793.987244,191.076904 
	C793.888000,173.062592 785.113647,160.783569 768.055603,154.952835 
	C753.339417,149.922562 738.238098,149.684204 723.176819,152.677185 
	C699.029297,157.475800 688.146179,169.458878 686.994263,193.907745 
	C686.054565,213.853455 686.336792,233.872467 686.571350,253.853180 
	C686.787231,272.237671 695.425293,285.449646 712.997253,291.616119 
	C730.159180,297.638672 747.752441,297.578308 764.979919,291.884827 
	C785.019470,285.261993 796.374817,264.900757 792.123962,244.219604 
	C779.250977,244.219604 766.332458,244.219604 753.257446,244.219604 
	C752.790344,248.833878 752.537415,253.296432 751.847534,257.690399 
	C750.793518,264.403870 746.886108,267.524048 740.138977,267.464111 
	C731.081787,267.383636 727.197632,262.602325 727.000549,250.342285 
M398.999298,245.488098 
	C399.059814,248.817932 398.997223,252.155319 399.201233,255.476334 
	C400.338654,273.990417 409.862366,286.259491 427.603210,291.629242 
	C441.423187,295.812225 455.469299,295.872894 469.588654,293.111267 
	C489.387268,289.238831 502.089264,275.815735 502.831421,255.643753 
	C503.633240,233.850433 503.626465,211.982056 502.828583,190.188278 
	C502.071381,169.506149 490.082153,155.743347 469.713379,152.184677 
	C459.376373,150.378647 448.460663,150.137543 437.997192,151.153030 
	C413.369629,153.543121 400.088165,168.175232 399.282349,193.019928 
	C398.726349,210.162384 399.062103,227.333740 398.999298,245.488098 
M520.541138,153.849564 
	C519.270447,153.967010 517.999756,154.084457 516.723938,154.202377 
	C516.723938,163.551224 516.723938,172.514420 516.723938,181.985077 
	C522.139771,181.985077 527.384277,181.985077 533.000183,181.985077 
	C533.000183,184.275513 533.000122,186.074509 533.000183,187.873489 
	C533.000244,212.870285 532.944458,237.867233 533.021912,262.863800 
	C533.066589,277.293335 540.091125,287.215179 552.890015,290.536591 
	C565.580627,293.829926 578.287659,291.622955 591.010193,290.355652 
	C591.010193,280.830597 591.010193,271.804779 591.010193,262.544495 
	C588.896729,262.672791 587.244202,262.737122 585.598267,262.878815 
	C574.317932,263.849976 572.463501,262.149231 572.461670,250.760956 
	C572.458191,229.763657 572.460754,208.766357 572.460754,187.769058 
	C572.460754,185.974319 572.460693,184.179581 572.460693,181.886551 
	C579.056885,181.886551 585.152100,181.886551 591.091736,181.886551 
	C591.091736,172.310074 591.091736,163.239975 591.091736,153.744720 
	C584.808350,153.744720 578.884033,153.744720 572.356934,153.744720 
	C572.356934,140.605789 572.356934,127.888069 572.356934,115.072350 
	C558.978760,115.072350 546.221252,115.072350 532.939209,115.072350 
	C532.939209,128.015701 532.939209,140.744568 532.939209,153.849197 
	C528.790588,153.849197 525.156921,153.849197 520.541138,153.849564 
M647.461365,279.495117 
	C647.461304,256.517059 647.447693,233.539017 647.481995,210.561020 
	C647.485474,208.240387 647.629517,205.898468 647.964294,203.603775 
	C649.032654,196.281296 651.973083,193.421310 659.439331,193.002151 
	C664.829773,192.699524 670.250793,192.943130 675.774231,192.943130 
	C675.774231,179.129776 675.774231,164.700455 675.774231,150.102036 
	C660.338745,150.084778 651.388062,158.834778 644.887451,171.527679 
	C644.887451,165.756866 644.887451,159.986053 644.887451,154.158325 
	C632.344788,154.158325 620.114807,154.158325 607.898315,154.158325 
	C607.898315,199.659058 607.898315,244.849289 607.898315,290.151489 
	C621.153564,290.151489 634.047180,290.151489 647.461609,290.151489 
	C647.461609,286.730927 647.461609,283.611816 647.461365,279.495117 
z"/>
<path fill="#010100" opacity="1.000000" stroke="none" 
	d="
M1182.466064,394.000000 
	C1182.000000,263.310699 1182.000000,132.621384 1182.000000,1.466042 
	C1313.285278,1.000000 1444.570557,1.000000 1575.927979,1.000000 
	C1575.927979,131.903961 1575.927979,262.807953 1575.927979,394.000000 
	C1444.977417,394.000000 1313.954712,394.000000 1182.466064,394.000000 
M1263.829102,200.500076 
	C1263.829224,182.506943 1263.908081,164.513229 1263.775635,146.521072 
	C1263.741211,141.830475 1265.781494,138.891388 1269.980103,137.384018 
	C1276.871704,134.909882 1283.342407,139.371567 1283.396484,146.671036 
	C1283.482544,158.298355 1283.419434,169.926788 1283.419434,181.777435 
	C1296.259155,181.777435 1308.673950,181.777435 1321.580322,181.777435 
	C1321.580322,168.699539 1321.458008,155.743347 1321.619385,142.790695 
	C1321.746826,132.563171 1317.658813,124.394829 1310.063477,117.885590 
	C1291.752319,102.192719 1260.093506,100.983505 1240.171509,115.148758 
	C1230.988159,121.678467 1225.066040,130.215698 1225.033936,141.827225 
	C1224.930420,179.312653 1224.973633,216.798584 1225.011230,254.284271 
	C1225.020264,263.369598 1228.232666,271.283691 1234.785400,277.566833 
	C1244.785522,287.155396 1257.329468,289.849304 1270.646606,289.905365 
	C1272.077759,289.911377 1273.685913,288.786865 1274.922607,287.817719 
	C1287.632935,277.857422 1300.490112,268.065399 1312.818604,257.649139 
	C1316.287720,254.718109 1319.998291,250.071045 1320.401489,245.901932 
	C1321.460449,234.952194 1320.759155,223.832199 1320.759155,212.813995 
	C1308.470459,212.813995 1296.085938,212.813995 1283.419067,212.813995 
	C1283.419067,224.685349 1283.469727,236.164795 1283.399048,247.643509 
	C1283.360474,253.924652 1279.574585,257.873444 1273.741211,257.991974 
	C1267.709595,258.114502 1263.849365,254.067230 1263.837769,247.482559 
	C1263.810791,232.155106 1263.829102,216.827591 1263.829102,200.500076 
M1438.172485,136.446777 
	C1438.172485,139.230911 1438.172485,142.015045 1438.172485,145.222900 
	C1447.450073,145.222900 1456.215942,145.222900 1465.421875,145.222900 
	C1465.421875,147.447784 1465.421875,149.243469 1465.421875,151.039169 
	C1465.421997,187.036072 1465.460571,223.033081 1465.357178,259.029694 
	C1465.347656,262.316345 1466.209717,264.527069 1468.879883,266.617126 
	C1475.827759,272.055328 1482.933838,277.416931 1489.131714,283.649384 
	C1494.482544,289.029968 1500.326294,289.118408 1507.431396,288.157990 
	C1507.431396,240.480621 1507.431396,192.927658 1507.431396,144.949982 
	C1516.422241,144.949982 1524.840454,144.949982 1533.330566,144.949982 
	C1533.330566,133.416046 1533.330566,122.315018 1533.330566,111.172119 
	C1501.535156,111.172119 1469.988525,111.172119 1438.172485,111.172119 
	C1438.172485,119.505028 1438.172485,127.481453 1438.172485,136.446777 
M1358.006958,123.419258 
	C1348.685303,163.458527 1339.363647,203.497787 1329.811401,244.527435 
	C1349.872437,229.301285 1369.063599,214.735291 1388.267700,200.159546 
	C1408.495117,216.682953 1428.444702,232.979340 1448.394287,249.275742 
	C1448.707031,249.009003 1449.019775,248.742279 1449.332397,248.475540 
	C1438.838989,202.465576 1428.345459,156.455597 1417.830444,110.350937 
	C1398.831299,110.350937 1380.054688,110.350937 1361.162598,110.350937 
	C1360.136963,114.526939 1359.145996,118.561699 1358.006958,123.419258 
M1420.463379,239.036804 
	C1409.863525,230.269394 1399.263794,221.501968 1388.640015,212.714691 
	C1355.813599,237.795792 1323.413818,262.550995 1290.359009,287.806641 
	C1353.854980,287.806641 1416.168091,287.806641 1479.396851,287.806641 
	C1459.444702,271.288666 1440.231934,255.382935 1420.463379,239.036804 
M1561.255127,127.569435 
	C1563.860352,123.042175 1563.550415,118.563507 1560.407471,114.553238 
	C1557.673950,111.065498 1553.850952,109.502174 1549.356445,110.371010 
	C1544.052612,111.396271 1540.449585,115.404869 1539.953857,120.610611 
	C1539.467896,125.714554 1542.106689,130.203659 1546.779541,132.222427 
	C1551.924805,134.445297 1556.457031,133.170074 1561.255127,127.569435 
z"/>
<path fill="#010101" opacity="1.000000" stroke="none" 
	d="
M338.892944,235.550079 
	C334.475281,230.665848 330.748474,225.349136 325.755219,221.828735 
	C315.033264,214.269409 303.368561,208.051483 292.608276,200.541473 
	C266.660461,182.431564 266.869293,150.936493 274.764557,131.137115 
	C279.106506,120.248589 287.006683,112.490822 297.841309,108.184341 
	C315.235046,101.270752 333.029510,100.766853 350.494720,107.546303 
	C369.912262,115.083588 379.030243,130.497665 381.057159,150.638962 
	C381.339661,153.446503 381.413910,156.279388 381.470917,159.102829 
	C381.490387,160.067535 381.161346,161.039291 380.955170,162.215378 
	C367.386261,162.215378 353.999969,162.215378 340.575897,162.215378 
	C340.202362,157.619553 340.235962,153.264160 339.430267,149.069977 
	C337.498932,139.016281 330.735840,134.508057 321.446533,136.643036 
	C313.277100,138.520645 309.127899,146.617737 311.534485,155.937790 
	C313.193298,162.361847 317.667084,166.572983 322.992737,169.854645 
	C330.493774,174.476730 338.448395,178.388840 345.783417,183.247101 
	C353.924957,188.639557 362.726837,193.706833 369.224976,200.770493 
	C383.326324,216.098953 383.272888,235.302032 380.289246,254.509293 
	C377.895599,269.918457 370.007721,282.061066 355.562469,288.572906 
	C348.868256,291.590607 341.336426,293.155731 334.015533,294.284668 
	C322.360046,296.082001 310.741425,294.773773 299.514069,291.099976 
	C279.306030,284.487518 268.372253,270.055267 267.511627,248.886292 
	C267.249146,242.429688 267.470917,235.953400 267.470917,229.245361 
	C281.187317,229.245361 294.458313,229.245361 308.541321,229.245361 
	C308.541321,233.928223 308.393829,238.674255 308.571198,243.408142 
	C308.974487,254.172409 313.058868,259.579773 321.789032,261.239014 
	C331.268188,263.040588 338.484741,258.316284 339.744415,248.746674 
	C340.292938,244.579514 339.301666,240.209656 338.892944,235.550079 
z"/>
<path fill="#010000" opacity="1.000000" stroke="none" 
	d="
M915.462219,316.000061 
	C915.462341,323.286896 915.462341,330.073761 915.462341,337.156006 
	C901.836853,337.156006 888.738831,337.156006 875.145752,337.156006 
	C875.145752,318.346161 875.145752,299.458130 875.145752,280.455048 
	C870.219299,284.407318 866.081177,288.858826 861.015137,291.587128 
	C843.078613,301.246765 823.120422,294.014984 815.984985,274.875122 
	C813.078064,267.077606 811.526062,258.418121 811.216553,250.081772 
	C810.524658,231.445145 810.713623,212.758392 811.154846,194.106506 
	C811.309998,187.544708 812.489929,180.780533 814.505188,174.528870 
	C822.861816,148.605545 853.560791,142.476822 871.782288,162.874420 
	C873.773804,165.103806 875.514648,167.557205 877.922363,170.603287 
	C877.922363,165.218048 877.922363,160.426804 877.922363,155.324173 
	C890.614929,155.324173 902.684570,155.324173 915.462097,155.324173 
	C915.462097,208.706894 915.462097,262.103485 915.462219,316.000061 
M875.006653,239.470978 
	C875.006531,228.309601 875.388123,217.129791 874.850769,205.994339 
	C874.567871,200.130508 873.091858,194.218536 871.369080,188.567795 
	C870.254822,184.912949 867.012512,182.720520 862.833008,182.861710 
	C858.656799,183.002823 855.411011,184.876907 853.694702,188.719986 
	C852.762695,190.806747 851.968567,193.139893 851.886658,195.390076 
	C851.493408,206.198883 851.179626,217.017654 851.200439,227.832214 
	C851.216736,236.307617 851.380005,244.819031 852.194092,253.245255 
	C852.859558,260.133362 857.067688,263.895752 862.620117,263.995911 
	C868.077209,264.094330 872.518860,260.360931 873.772339,253.840240 
	C874.613953,249.462204 874.624329,244.924393 875.006653,239.470978 
z"/>
<path fill="#010101" opacity="1.000000" stroke="none" 
	d="
M727.000610,250.816727 
	C727.197632,262.602325 731.081787,267.383636 740.138977,267.464111 
	C746.886108,267.524048 750.793518,264.403870 751.847534,257.690399 
	C752.537415,253.296432 752.790344,248.833878 753.257446,244.219604 
	C766.332458,244.219604 779.250977,244.219604 792.123962,244.219604 
	C796.374817,264.900757 785.019470,285.261993 764.979919,291.884827 
	C747.752441,297.578308 730.159180,297.638672 712.997253,291.616119 
	C695.425293,285.449646 686.787231,272.237671 686.571350,253.853180 
	C686.336792,233.872467 686.054565,213.853455 686.994263,193.907745 
	C688.146179,169.458878 699.029297,157.475800 723.176819,152.677185 
	C738.238098,149.684204 753.339417,149.922562 768.055603,154.952835 
	C785.113647,160.783569 793.888000,173.062592 793.987244,191.076904 
	C794.056030,203.549500 794.000549,216.022781 794.000549,229.016632 
	C771.679565,229.016632 749.631104,229.016632 727.000549,229.016632 
	C727.000549,236.467209 727.000549,243.404739 727.000610,250.816727 
M750.852661,181.744446 
	C746.614746,176.983337 741.435669,175.933990 735.489075,177.810486 
	C729.867859,179.584320 727.965759,184.172806 727.459106,189.292145 
	C726.994019,193.991119 727.360229,198.772369 727.360229,203.527710 
	C736.329834,203.527710 745.034668,203.527710 755.294617,203.527710 
	C753.871948,196.072067 752.565857,189.227432 750.852661,181.744446 
z"/>
<path fill="#010101" opacity="1.000000" stroke="none" 
	d="
M398.999298,244.990143 
	C399.062103,227.333740 398.726349,210.162384 399.282349,193.019928 
	C400.088165,168.175232 413.369629,153.543121 437.997192,151.153030 
	C448.460663,150.137543 459.376373,150.378647 469.713379,152.184677 
	C490.082153,155.743347 502.071381,169.506149 502.828583,190.188278 
	C503.626465,211.982056 503.633240,233.850433 502.831421,255.643753 
	C502.089264,275.815735 489.387268,289.238831 469.588654,293.111267 
	C455.469299,295.872894 441.423187,295.812225 427.603210,291.629242 
	C409.862366,286.259491 400.338654,273.990417 399.201233,255.476334 
	C398.997223,252.155319 399.059814,248.817932 398.999298,244.990143 
M463.855927,232.500000 
	C463.855896,220.017746 463.961426,207.534012 463.784332,195.054260 
	C463.737885,191.781830 463.194519,188.401566 462.207367,185.283554 
	C460.619812,180.268982 456.667389,177.932434 451.522003,177.860138 
	C446.368011,177.787735 442.440002,180.030975 440.723114,185.042969 
	C439.821198,187.675919 439.302887,190.520874 439.125671,193.302841 
	C438.851135,197.613281 439.000031,201.951767 438.998138,206.278351 
	C438.991394,221.756317 438.930054,237.234695 439.026093,252.712067 
	C439.073334,260.328705 441.816925,264.633942 447.095795,266.083679 
	C456.767853,268.739899 463.437866,263.815887 463.806549,253.469940 
	C464.043488,246.821136 463.854187,240.157150 463.855927,232.500000 
z"/>
<path fill="#000000" opacity="1.000000" stroke="none" 
	d="
M521.032166,153.849380 
	C525.156921,153.849197 528.790588,153.849197 532.939209,153.849197 
	C532.939209,140.744568 532.939209,128.015701 532.939209,115.072350 
	C546.221252,115.072350 558.978760,115.072350 572.356934,115.072350 
	C572.356934,127.888069 572.356934,140.605789 572.356934,153.744720 
	C578.884033,153.744720 584.808350,153.744720 591.091736,153.744720 
	C591.091736,163.239975 591.091736,172.310074 591.091736,181.886551 
	C585.152100,181.886551 579.056885,181.886551 572.460693,181.886551 
	C572.460693,184.179581 572.460754,185.974319 572.460754,187.769058 
	C572.460754,208.766357 572.458191,229.763657 572.461670,250.760956 
	C572.463501,262.149231 574.317932,263.849976 585.598267,262.878815 
	C587.244202,262.737122 588.896729,262.672791 591.010193,262.544495 
	C591.010193,271.804779 591.010193,280.830597 591.010193,290.355652 
	C578.287659,291.622955 565.580627,293.829926 552.890015,290.536591 
	C540.091125,287.215179 533.066589,277.293335 533.021912,262.863800 
	C532.944458,237.867233 533.000244,212.870285 533.000183,187.873489 
	C533.000122,186.074509 533.000183,184.275513 533.000183,181.985077 
	C527.384277,181.985077 522.139771,181.985077 516.723938,181.985077 
	C516.723938,172.514420 516.723938,163.551224 516.723938,154.202377 
	C517.999756,154.084457 519.270447,153.967010 521.032166,153.849380 
z"/>
<path fill="#000000" opacity="1.000000" stroke="none" 
	d="
M647.461487,279.993896 
	C647.461609,283.611816 647.461609,286.730927 647.461609,290.151489 
	C634.047180,290.151489 621.153564,290.151489 607.898315,290.151489 
	C607.898315,244.849289 607.898315,199.659058 607.898315,154.158325 
	C620.114807,154.158325 632.344788,154.158325 644.887451,154.158325 
	C644.887451,159.986053 644.887451,165.756866 644.887451,171.527679 
	C651.388062,158.834778 660.338745,150.084778 675.774231,150.102036 
	C675.774231,164.700455 675.774231,179.129776 675.774231,192.943130 
	C670.250793,192.943130 664.829773,192.699524 659.439331,193.002151 
	C651.973083,193.421310 649.032654,196.281296 647.964294,203.603775 
	C647.629517,205.898468 647.485474,208.240387 647.481995,210.561020 
	C647.447693,233.539017 647.461304,256.517059 647.461487,279.993896 
z"/>
<path fill="#FCFCFC" opacity="1.000000" stroke="none" 
	d="
M1263.829102,201.000092 
	C1263.829102,216.827591 1263.810791,232.155106 1263.837769,247.482559 
	C1263.849365,254.067230 1267.709595,258.114502 1273.741211,257.991974 
	C1279.574585,257.873444 1283.360474,253.924652 1283.399048,247.643509 
	C1283.469727,236.164795 1283.419067,224.685349 1283.419067,212.813995 
	C1296.085938,212.813995 1308.470459,212.813995 1320.759155,212.813995 
	C1320.759155,223.832199 1321.460449,234.952194 1320.401489,245.901932 
	C1319.998291,250.071045 1316.287720,254.718109 1312.818604,257.649139 
	C1300.490112,268.065399 1287.632935,277.857422 1274.922607,287.817719 
	C1273.685913,288.786865 1272.077759,289.911377 1270.646606,289.905365 
	C1257.329468,289.849304 1244.785522,287.155396 1234.785400,277.566833 
	C1228.232666,271.283691 1225.020264,263.369598 1225.011230,254.284271 
	C1224.973633,216.798584 1224.930420,179.312653 1225.033936,141.827225 
	C1225.066040,130.215698 1230.988159,121.678467 1240.171509,115.148758 
	C1260.093506,100.983505 1291.752319,102.192719 1310.063477,117.885590 
	C1317.658813,124.394829 1321.746826,132.563171 1321.619385,142.790695 
	C1321.458008,155.743347 1321.580322,168.699539 1321.580322,181.777435 
	C1308.673950,181.777435 1296.259155,181.777435 1283.419434,181.777435 
	C1283.419434,169.926788 1283.482544,158.298355 1283.396484,146.671036 
	C1283.342407,139.371567 1276.871704,134.909882 1269.980103,137.384018 
	C1265.781494,138.891388 1263.741211,141.830475 1263.775635,146.521072 
	C1263.908081,164.513229 1263.829224,182.506943 1263.829102,201.000092 
z"/>
<path fill="#FCFCFC" opacity="1.000000" stroke="none" 
	d="
M1438.172485,135.952332 
	C1438.172485,127.481453 1438.172485,119.505028 1438.172485,111.172119 
	C1469.988525,111.172119 1501.535156,111.172119 1533.330566,111.172119 
	C1533.330566,122.315018 1533.330566,133.416046 1533.330566,144.949982 
	C1524.840454,144.949982 1516.422241,144.949982 1507.431396,144.949982 
	C1507.431396,192.927658 1507.431396,240.480621 1507.431396,288.157990 
	C1500.326294,289.118408 1494.482544,289.029968 1489.131714,283.649384 
	C1482.933838,277.416931 1475.827759,272.055328 1468.879883,266.617126 
	C1466.209717,264.527069 1465.347656,262.316345 1465.357178,259.029694 
	C1465.460571,223.033081 1465.421997,187.036072 1465.421875,151.039169 
	C1465.421875,149.243469 1465.421875,147.447784 1465.421875,145.222900 
	C1456.215942,145.222900 1447.450073,145.222900 1438.172485,145.222900 
	C1438.172485,142.015045 1438.172485,139.230911 1438.172485,135.952332 
z"/>
<path fill="#FCFCFC" opacity="1.000000" stroke="none" 
	d="
M1358.081055,123.007858 
	C1359.145996,118.561699 1360.136963,114.526939 1361.162598,110.350937 
	C1380.054688,110.350937 1398.831299,110.350937 1417.830444,110.350937 
	C1428.345459,156.455597 1438.838989,202.465576 1449.332397,248.475540 
	C1449.019775,248.742279 1448.707031,249.009003 1448.394287,249.275742 
	C1428.444702,232.979340 1408.495117,216.682953 1388.267700,200.159546 
	C1369.063599,214.735291 1349.872437,229.301285 1329.811401,244.527435 
	C1339.363647,203.497787 1348.685303,163.458527 1358.081055,123.007858 
M1389.908813,145.379684 
	C1389.336914,145.423111 1388.298340,145.360992 1388.261230,145.525360 
	C1387.272095,149.898529 1386.404785,154.298965 1385.478882,158.686752 
	C1383.227905,169.355637 1380.958008,180.020523 1378.660034,190.855133 
	C1385.694580,190.855133 1392.230835,190.855133 1398.934448,190.855133 
	C1395.908203,175.700104 1392.951782,160.895096 1389.908813,145.379684 
z"/>
<path fill="#FEB501" opacity="1.000000" stroke="none" 
	d="
M1420.741333,239.256989 
	C1440.231934,255.382935 1459.444702,271.288666 1479.396851,287.806641 
	C1416.168091,287.806641 1353.854980,287.806641 1290.359009,287.806641 
	C1323.413818,262.550995 1355.813599,237.795792 1388.640015,212.714691 
	C1399.263794,221.501968 1409.863525,230.269394 1420.741333,239.256989 
z"/>
<path fill="#DFDFDF" opacity="1.000000" stroke="none" 
	d="
M1561.077881,127.909317 
	C1556.457031,133.170074 1551.924805,134.445297 1546.779541,132.222427 
	C1542.106689,130.203659 1539.467896,125.714554 1539.953857,120.610611 
	C1540.449585,115.404869 1544.052612,111.396271 1549.356445,110.371010 
	C1553.850952,109.502174 1557.673950,111.065498 1560.407471,114.553238 
	C1563.550415,118.563507 1563.860352,123.042175 1561.077881,127.909317 
M1547.119263,129.760910 
	C1550.427490,130.789139 1554.011475,133.166138 1555.971436,127.965675 
	C1555.971436,127.965675 1555.956299,128.038574 1556.728516,128.286285 
	C1560.959106,125.980721 1560.620239,122.097061 1559.588745,118.472420 
	C1558.496948,114.636002 1555.321045,112.565262 1551.404785,112.504189 
	C1550.094604,112.483749 1548.758301,114.148003 1547.523682,115.036369 
	C1547.523682,115.036369 1547.561646,114.954765 1546.967651,114.173630 
	C1541.085938,118.502693 1541.112793,125.231781 1547.009155,129.000900 
	C1547.009155,129.000900 1546.929810,129.014877 1547.119263,129.760910 
z"/>
<path fill="#FAB403" opacity="1.000000" stroke="none" 
	d="
M875.006653,239.964523 
	C874.624329,244.924393 874.613953,249.462204 873.772339,253.840240 
	C872.518860,260.360931 868.077209,264.094330 862.620117,263.995911 
	C857.067688,263.895752 852.859558,260.133362 852.194092,253.245255 
	C851.380005,244.819031 851.216736,236.307617 851.200439,227.832214 
	C851.179626,217.017654 851.493408,206.198883 851.886658,195.390076 
	C851.968567,193.139893 852.762695,190.806747 853.694702,188.719986 
	C855.411011,184.876907 858.656799,183.002823 862.833008,182.861710 
	C867.012512,182.720520 870.254822,184.912949 871.369080,188.567795 
	C873.091858,194.218536 874.567871,200.130508 874.850769,205.994339 
	C875.388123,217.129791 875.006531,228.309601 875.006653,239.964523 
z"/>
<path fill="#F9B304" opacity="1.000000" stroke="none" 
	d="
M751.056213,182.063629 
	C752.565857,189.227432 753.871948,196.072067 755.294617,203.527710 
	C745.034668,203.527710 736.329834,203.527710 727.360229,203.527710 
	C727.360229,198.772369 726.994019,193.991119 727.459106,189.292145 
	C727.965759,184.172806 729.867859,179.584320 735.489075,177.810486 
	C741.435669,175.933990 746.614746,176.983337 751.056213,182.063629 
z"/>
<path fill="#FBB403" opacity="1.000000" stroke="none" 
	d="
M463.855896,232.999985 
	C463.854187,240.157150 464.043488,246.821136 463.806549,253.469940 
	C463.437866,263.815887 456.767853,268.739899 447.095795,266.083679 
	C441.816925,264.633942 439.073334,260.328705 439.026093,252.712067 
	C438.930054,237.234695 438.991394,221.756317 438.998138,206.278351 
	C439.000031,201.951767 438.851135,197.613281 439.125671,193.302841 
	C439.302887,190.520874 439.821198,187.675919 440.723114,185.042969 
	C442.440002,180.030975 446.368011,177.787735 451.522003,177.860138 
	C456.667389,177.932434 460.619812,180.268982 462.207367,185.283554 
	C463.194519,188.401566 463.737885,191.781830 463.784332,195.054260 
	C463.961426,207.534012 463.855896,220.017746 463.855896,232.999985 
z"/>
<path fill="#050505" opacity="1.000000" stroke="none" 
	d="
M1389.952148,145.734879 
	C1392.951782,160.895096 1395.908203,175.700104 1398.934448,190.855133 
	C1392.230835,190.855133 1385.694580,190.855133 1378.660034,190.855133 
	C1380.958008,180.020523 1383.227905,169.355637 1385.478882,158.686752 
	C1386.404785,154.298965 1387.272095,149.898529 1388.261230,145.525360 
	C1388.298340,145.360992 1389.336914,145.423111 1389.952148,145.734879 
z"/>
<path fill="#CFCFCF" opacity="1.000000" stroke="none" 
	d="
M1547.561646,114.954765 
	C1547.561646,114.954765 1547.523682,115.036369 1547.933472,115.063065 
	C1551.350220,115.383720 1555.414673,113.836861 1555.993286,118.734749 
	C1556.354492,121.791901 1555.993408,124.934380 1555.956299,128.038574 
	C1555.956299,128.038574 1555.971436,127.965675 1555.671387,128.207092 
	C1553.744019,126.486420 1552.116455,124.524330 1550.592773,122.687370 
	C1548.975464,125.481209 1547.952637,127.248055 1546.929810,129.014893 
	C1546.929810,129.014877 1547.009155,129.000900 1547.127441,128.579346 
	C1547.350952,123.756783 1547.456299,119.355774 1547.561646,114.954765 
z"/>
<path fill="#090909" opacity="1.000000" stroke="none" 
	d="
M1556.342407,128.162430 
	C1555.993408,124.934380 1556.354492,121.791901 1555.993286,118.734749 
	C1555.414673,113.836861 1551.350220,115.383720 1547.888672,115.065964 
	C1548.758301,114.148003 1550.094604,112.483749 1551.404785,112.504189 
	C1555.321045,112.565262 1558.496948,114.636002 1559.588745,118.472420 
	C1560.620239,122.097061 1560.959106,125.980721 1556.342407,128.162430 
z"/>
<path fill="#090909" opacity="1.000000" stroke="none" 
	d="
M1547.264648,114.564194 
	C1547.456299,119.355774 1547.350952,123.756783 1547.136475,128.618561 
	C1541.112793,125.231781 1541.085938,118.502693 1547.264648,114.564194 
z"/>
<path fill="#1A1A1A" opacity="1.000000" stroke="none" 
	d="
M1547.024536,129.387909 
	C1547.952637,127.248055 1548.975464,125.481209 1550.592773,122.687370 
	C1552.116455,124.524330 1553.744019,126.486420 1555.705811,128.192612 
	C1554.011475,133.166138 1550.427490,130.789139 1547.024536,129.387909 
z"/>
</svg>