<svg version="1.1" id="Layer_1" xmlns="http://www.w3.org/2000/svg" xmlns:xlink="http://www.w3.org/1999/xlink" x="0px" y="0px"
	 width="100%" viewBox="0 0 2363 591" enable-background="new 0 0 2363 591" xml:space="preserve">
<path fill="#FFCD11" opacity="1.000000" stroke="none" 
	d="
M1772.000000,592.000000 
	C1181.723877,592.000000 591.447815,592.000000 1.085873,592.000000 
	C1.085873,395.076385 1.085873,198.152725 1.085873,1.000000 
	C591.032715,1.000000 1181.065430,1.000000 1771.740967,1.435045 
	C1772.411255,2.702202 1772.463013,3.534313 1772.463013,4.366423 
	C1772.466797,198.778610 1772.467651,393.190796 1772.447632,587.602966 
	C1772.447388,589.068665 1772.155640,590.534302 1772.000000,592.000000 
M505.727112,348.967651 
	C509.197876,355.096832 510.355652,361.708282 509.996338,368.684692 
	C509.352600,381.184387 502.938965,390.435822 492.945068,392.201477 
	C479.082031,394.650757 464.596924,389.100037 462.944397,371.165833 
	C462.128540,362.311920 462.802795,353.320679 462.802795,343.997864 
	C442.874878,343.997864 424.080780,343.997864 405.286652,343.997864 
	C403.999084,343.997864 402.711517,343.997864 400.997864,343.997864 
	C400.997864,354.049957 400.997620,363.670929 400.997925,373.291901 
	C400.998810,401.109528 415.713135,423.672333 441.539886,434.130585 
	C468.115479,444.892120 495.466919,445.513184 522.723572,437.303162 
	C546.511047,430.138153 561.562439,413.831451 568.299255,389.852051 
	C571.953796,376.843781 572.375427,363.586761 571.832153,350.223511 
	C570.687866,322.074280 558.822937,300.011139 534.601807,285.104004 
	C524.549805,278.917450 514.225586,273.174072 504.153412,267.019348 
	C494.942657,261.391022 485.492126,256.027557 476.896820,249.552368 
	C466.496887,241.717728 463.954956,230.594910 467.145233,218.214050 
	C469.077179,210.716675 474.173615,206.296188 481.793854,205.000824 
	C496.896149,202.433578 506.792358,209.574173 508.917450,224.804703 
	C509.781555,230.997955 509.963684,237.286377 510.461121,243.594513 
	C530.731934,243.594513 550.821533,243.594513 570.982971,243.594513 
	C570.982971,236.905914 571.384827,230.432632 570.914612,224.023315 
	C568.683533,193.613312 549.507996,169.220551 520.496826,159.675720 
	C502.689819,153.817139 484.506348,153.628220 466.193634,156.602661 
	C453.877808,158.603058 442.389679,162.824249 432.303833,170.327805 
	C415.234192,183.027161 407.642944,200.781601 405.569733,221.336594 
	C402.318024,253.575287 410.756622,281.347839 438.166748,300.723511 
	C453.485870,311.552307 469.799622,320.978699 485.716003,330.956024 
	C493.234283,335.668884 500.567169,340.534943 505.727112,348.967651 
M1215.997437,346.500000 
	C1215.997437,355.661896 1215.356445,364.880554 1216.161987,373.971100 
	C1217.140381,385.013336 1218.281738,396.237274 1221.198853,406.876404 
	C1231.724121,445.263245 1275.740112,455.812866 1302.934814,429.096313 
	C1305.950806,426.133270 1308.680908,422.879303 1312.202637,419.042206 
	C1312.202637,448.531525 1312.202637,477.085846 1312.202637,505.902100 
	C1332.529907,505.902100 1352.423950,505.902100 1372.527344,505.902100 
	C1372.527344,414.853241 1372.527344,324.014008 1372.527344,233.051788 
	C1353.959717,233.051788 1335.706543,233.051788 1316.955444,233.051788 
	C1316.955444,240.946701 1316.955444,248.638855 1316.955444,257.643158 
	C1315.301392,255.176514 1314.437622,253.839432 1313.525513,252.536194 
	C1307.429932,243.826782 1300.290649,236.280151 1290.377686,231.839127 
	C1267.478516,221.580322 1234.463501,223.940216 1222.223511,259.388824 
	C1218.645874,269.750061 1216.852539,281.058990 1216.256958,292.042847 
	C1215.293457,309.814331 1215.997437,327.676270 1215.997437,346.500000 
M1128.229858,378.592163 
	C1127.975220,381.073730 1127.908691,383.591919 1127.433838,386.030609 
	C1125.225708,397.373047 1120.402832,401.486328 1109.565308,401.462128 
	C1098.650024,401.437805 1092.064087,396.494629 1090.708984,385.614777 
	C1089.645264,377.074951 1090.142822,368.336700 1090.016113,359.685577 
	C1089.941528,354.598022 1090.002441,349.508484 1090.002441,343.954803 
	C1123.783081,343.954803 1156.851807,343.954803 1190.168335,343.954803 
	C1190.168335,324.494293 1190.168457,305.513000 1190.168335,286.531738 
	C1190.168213,259.794708 1177.457520,241.739243 1152.261841,232.851746 
	C1130.969238,225.341049 1109.127441,225.512772 1087.156494,228.630569 
	C1075.000366,230.355576 1063.470947,234.085327 1053.411743,241.385345 
	C1035.586914,254.320908 1029.760986,272.965363 1029.540649,293.806274 
	C1029.230835,323.136078 1029.407837,352.471680 1029.478760,381.804596 
	C1029.542236,408.090271 1042.948608,428.024261 1067.656616,437.054535 
	C1094.556885,446.886078 1121.915771,446.564667 1148.884399,437.373291 
	C1169.380249,430.387970 1181.894287,415.587585 1186.566040,394.405304 
	C1188.603027,385.168610 1189.152832,375.806458 1188.130859,366.463257 
	C1168.123169,366.463257 1148.691895,366.463257 1129.168701,366.463257 
	C1128.893555,370.402374 1128.639038,374.046204 1128.229858,378.592163 
M718.719543,232.744629 
	C718.274780,232.518707 717.846252,232.250259 717.382874,232.073013 
	C698.409058,224.815140 678.724609,224.035019 658.863220,226.228500 
	C643.435669,227.932312 628.813354,232.214233 617.040771,243.137238 
	C602.808655,256.342377 598.514282,273.617493 598.266052,292.037079 
	C597.866394,321.684875 598.044617,351.342529 598.192444,380.994934 
	C598.325684,407.717316 611.880066,427.094299 636.939209,436.273224 
	C657.476807,443.795898 678.740540,444.123413 699.982361,440.634094 
	C733.781494,435.082092 752.667236,415.115295 753.884338,381.454498 
	C755.050659,349.197876 754.926941,316.826355 753.656250,284.572815 
	C752.738464,261.274658 741.754700,242.945984 718.719543,232.744629 
M798.997375,345.500000 
	C798.997559,362.159088 798.869141,378.819427 799.029724,395.476959 
	C799.242249,417.518799 811.438477,432.887207 832.122314,436.879761 
	C850.180847,440.365570 868.152466,437.555206 886.131348,435.758026 
	C886.131348,421.604889 886.131348,407.913361 886.131348,393.843018 
	C882.233032,394.203156 878.747864,394.368530 875.312012,394.870728 
	C863.070618,396.660065 858.175232,392.519989 858.171692,380.162231 
	C858.161926,346.177460 858.168335,312.192657 858.168335,278.207886 
	C858.168335,276.598114 858.168335,274.988312 858.168335,273.004028 
	C867.825134,273.004028 876.926819,273.004028 886.280029,273.004028 
	C886.280029,258.868317 886.280029,245.113480 886.280029,230.712891 
	C876.881104,230.712891 867.670837,230.712891 858.013367,230.712891 
	C858.013367,211.001022 858.013367,191.930252 858.013367,172.748657 
	C838.120239,172.748657 818.701538,172.748657 798.726685,172.748657 
	C798.726685,192.246964 798.726685,211.464478 798.726685,231.042389 
	C790.407288,231.042389 782.641968,231.042389 774.738159,231.042389 
	C774.738159,245.174362 774.738159,258.928894 774.738159,273.143219 
	C782.920349,273.143219 790.832764,273.143219 798.997375,273.143219 
	C798.997375,297.235779 798.997375,320.867889 798.997375,345.500000 
M947.500000,435.841400 
	C955.113892,435.841400 962.727722,435.841400 970.841370,435.841400 
	C970.841370,433.517578 970.841370,431.730530 970.841370,429.943512 
	C970.841370,390.959686 970.834900,351.975830 970.856323,312.992004 
	C970.857727,310.498627 970.853638,307.971405 971.230042,305.517914 
	C972.868225,294.840851 977.031677,290.540833 987.829651,289.783112 
	C996.201965,289.195557 1004.648560,289.665710 1013.217590,289.665710 
	C1013.217590,268.962616 1013.217590,247.223801 1013.217590,225.301788 
	C989.545288,225.385590 975.842407,238.551392 966.803162,258.707092 
	C966.803162,249.462097 966.803162,240.217102 966.803162,231.150314 
	C947.967529,231.150314 929.552185,231.150314 911.208984,231.150314 
	C911.208984,299.493958 911.208984,367.518005 911.208984,435.841370 
	C923.222717,435.841370 934.861328,435.841370 947.500000,435.841400 
z"/>
<path fill="#000000" opacity="1.000000" stroke="none" 
	d="
M1772.333252,592.000000 
	C1772.155640,590.534302 1772.447388,589.068665 1772.447632,587.602966 
	C1772.467651,393.190796 1772.466797,198.778610 1772.463013,4.366423 
	C1772.463013,3.534313 1772.411255,2.702202 1772.191895,1.435045 
	C1968.687500,1.000000 2165.375000,1.000000 2362.531250,1.461255 
	C2362.996582,198.275024 2362.993164,394.627533 2362.524414,591.033752 
	C2359.893311,591.099243 2357.727295,591.121338 2355.561523,591.121338 
	C2163.786865,591.122925 1972.012329,591.119995 1780.237793,591.159119 
	C1778.158569,591.159546 1776.079224,591.707581 1774.000000,592.000000 
	C1773.555542,592.000000 1773.111084,592.000000 1772.333252,592.000000 
M1895.001587,299.500000 
	C1895.001709,272.838257 1894.983398,246.176514 1895.012451,219.514816 
	C1895.021484,211.095688 1900.827759,205.430222 1909.553833,205.172256 
	C1918.251465,204.915131 1924.654541,210.829041 1924.815796,219.359207 
	C1924.897583,223.690155 1924.830078,228.023926 1924.830078,232.356430 
	C1924.830200,245.792404 1924.830322,259.228363 1924.830322,272.720398 
	C1944.044556,272.720398 1962.776245,272.720398 1981.838623,272.720398 
	C1981.838623,252.811584 1981.725342,233.181351 1981.879272,213.553207 
	C1981.978760,200.863358 1977.425903,190.161392 1968.743164,181.165085 
	C1940.823486,152.236603 1885.139160,150.285538 1854.502197,177.113190 
	C1842.989258,187.194611 1837.019043,199.621643 1837.078735,215.233200 
	C1837.290527,270.721680 1837.152344,326.211426 1837.167603,381.700714 
	C1837.171753,396.546356 1842.774902,408.936829 1854.025513,418.588348 
	C1868.415283,430.932831 1885.651489,434.971741 1904.100952,434.898041 
	C1906.354858,434.889038 1909.017212,433.993896 1910.790649,432.611664 
	C1930.355835,417.364044 1949.772583,401.926056 1969.252563,386.568817 
	C1975.694946,381.489746 1979.749390,374.832367 1980.882324,366.859009 
	C1981.811890,360.317322 1981.706787,353.610535 1981.804199,346.973114 
	C1981.940552,337.698517 1981.838623,328.420380 1981.838623,319.134155 
	C1962.533813,319.134155 1943.800537,319.134155 1924.830322,319.134155 
	C1924.830322,337.078003 1924.860718,354.718903 1924.817749,372.359680 
	C1924.795654,381.400391 1918.755493,387.244385 1909.683228,387.160706 
	C1900.750977,387.078339 1895.014038,381.374695 1895.007690,372.486084 
	C1894.990479,348.490723 1895.001709,324.495361 1895.001587,299.500000 
M2178.500488,166.490463 
	C2171.397705,166.490463 2164.294678,166.490463 2157.263184,166.490463 
	C2157.263184,184.054779 2157.263184,200.987717 2157.263184,218.455902 
	C2170.905518,218.455902 2184.290527,218.455902 2197.830811,218.455902 
	C2197.830811,220.821320 2197.830811,222.648636 2197.830811,224.475937 
	C2197.830811,280.131775 2197.796143,335.787689 2197.955566,391.443024 
	C2197.961914,393.698700 2199.197266,396.647003 2200.876465,398.091125 
	C2213.751221,409.164825 2226.867188,419.959229 2239.947510,430.792603 
	C2241.046631,431.703094 2242.410645,432.834656 2243.693115,432.889832 
	C2249.124023,433.123413 2254.570801,432.988861 2260.339600,432.988861 
	C2260.339600,361.158447 2260.339600,289.905792 2260.339600,218.172974 
	C2273.583740,218.172974 2286.490967,218.172974 2299.601318,218.172974 
	C2299.601318,200.791763 2299.601318,183.892624 2299.601318,166.490494 
	C2259.410889,166.490494 2219.455811,166.490494 2178.500488,166.490463 
M2159.933594,313.566406 
	C2148.683838,264.360382 2137.434082,215.154343 2126.201660,166.024109 
	C2097.541992,166.024109 2069.416260,166.024109 2041.126221,166.024109 
	C2025.602539,232.628143 2010.113525,299.084015 1994.331909,366.794678 
	C2024.203369,344.120056 2053.021973,322.244598 2081.940674,300.293182 
	C2097.408691,312.972351 2112.452393,325.327576 2127.522705,337.649811 
	C2142.491699,349.889160 2157.488037,362.095398 2172.472412,374.316162 
	C2172.829834,374.057983 2173.187500,373.799774 2173.544922,373.541595 
	C2169.040039,353.827118 2164.535156,334.112671 2159.933594,313.566406 
M2122.866211,352.639343 
	C2109.433105,341.522400 2095.999756,330.405487 2082.485840,319.221832 
	C2033.062866,356.966827 1983.944946,394.478851 1934.029175,432.600220 
	C2029.602661,432.600220 2123.942627,432.600220 2219.472656,432.600220 
	C2186.913574,405.634369 2155.175781,379.348663 2122.866211,352.639343 
M2331.412598,199.189224 
	C2338.341553,197.151184 2342.335938,192.434082 2343.501465,185.431747 
	C2344.532471,179.239685 2342.572998,173.897736 2337.841064,169.770248 
	C2331.973145,164.652100 2322.786133,164.317276 2316.562500,168.802322 
	C2310.026123,173.512787 2307.693359,182.164169 2310.924072,189.714096 
	C2314.171875,197.303909 2321.373291,200.848297 2331.412598,199.189224 
z"/>
<path fill="#6D5807" opacity="1.000000" stroke="none" 
	d="
M2362.989746,590.980042 
	C2362.993164,394.627533 2362.996582,198.275024 2363.000000,1.461232 
	C2363.333252,1.166620 2363.943848,1.315879 2363.955566,1.502752 
	C2364.038818,2.830891 2364.000000,4.166667 2364.000000,5.500000 
	C2364.000000,201.000000 2364.000000,396.500000 2363.505859,591.744873 
	C2363.004395,591.319885 2362.997070,591.149963 2362.989746,590.980042 
z"/>
<path fill="#594706" opacity="1.000000" stroke="none" 
	d="
M2362.524414,591.033752 
	C2362.997070,591.149963 2363.004395,591.319885 2363.005859,591.744873 
	C2166.979004,592.000000 1970.958130,592.000000 1774.468628,592.000000 
	C1776.079224,591.707581 1778.158569,591.159546 1780.237793,591.159119 
	C1972.012329,591.119995 2163.786865,591.122925 2355.561523,591.121338 
	C2357.727295,591.121338 2359.893311,591.099243 2362.524414,591.033752 
z"/>
<path fill="#010100" opacity="1.000000" stroke="none" 
	d="
M505.514404,348.661713 
	C500.567169,340.534943 493.234283,335.668884 485.716003,330.956024 
	C469.799622,320.978699 453.485870,311.552307 438.166748,300.723511 
	C410.756622,281.347839 402.318024,253.575287 405.569733,221.336594 
	C407.642944,200.781601 415.234192,183.027161 432.303833,170.327805 
	C442.389679,162.824249 453.877808,158.603058 466.193634,156.602661 
	C484.506348,153.628220 502.689819,153.817139 520.496826,159.675720 
	C549.507996,169.220551 568.683533,193.613312 570.914612,224.023315 
	C571.384827,230.432632 570.982971,236.905914 570.982971,243.594513 
	C550.821533,243.594513 530.731934,243.594513 510.461121,243.594513 
	C509.963684,237.286377 509.781555,230.997955 508.917450,224.804703 
	C506.792358,209.574173 496.896149,202.433578 481.793854,205.000824 
	C474.173615,206.296188 469.077179,210.716675 467.145233,218.214050 
	C463.954956,230.594910 466.496887,241.717728 476.896820,249.552368 
	C485.492126,256.027557 494.942657,261.391022 504.153412,267.019348 
	C514.225586,273.174072 524.549805,278.917450 534.601807,285.104004 
	C558.822937,300.011139 570.687866,322.074280 571.832153,350.223511 
	C572.375427,363.586761 571.953796,376.843781 568.299255,389.852051 
	C561.562439,413.831451 546.511047,430.138153 522.723572,437.303162 
	C495.466919,445.513184 468.115479,444.892120 441.539886,434.130585 
	C415.713135,423.672333 400.998810,401.109528 400.997925,373.291901 
	C400.997620,363.670929 400.997864,354.049957 400.997864,343.997864 
	C402.711517,343.997864 403.999084,343.997864 405.286652,343.997864 
	C424.080780,343.997864 442.874878,343.997864 462.802795,343.997864 
	C462.802795,353.320679 462.128540,362.311920 462.944397,371.165833 
	C464.596924,389.100037 479.082031,394.650757 492.945068,392.201477 
	C502.938965,390.435822 509.352600,381.184387 509.996338,368.684692 
	C510.355652,361.708282 509.197876,355.096832 505.514404,348.661713 
z"/>
<path fill="#020100" opacity="1.000000" stroke="none" 
	d="
M1215.997437,346.000000 
	C1215.997437,327.676270 1215.293457,309.814331 1216.256958,292.042847 
	C1216.852539,281.058990 1218.645874,269.750061 1222.223511,259.388824 
	C1234.463501,223.940216 1267.478516,221.580322 1290.377686,231.839127 
	C1300.290649,236.280151 1307.429932,243.826782 1313.525513,252.536194 
	C1314.437622,253.839432 1315.301392,255.176514 1316.955444,257.643158 
	C1316.955444,248.638855 1316.955444,240.946701 1316.955444,233.051788 
	C1335.706543,233.051788 1353.959717,233.051788 1372.527344,233.051788 
	C1372.527344,324.014008 1372.527344,414.853241 1372.527344,505.902100 
	C1352.423950,505.902100 1332.529907,505.902100 1312.202637,505.902100 
	C1312.202637,477.085846 1312.202637,448.531525 1312.202637,419.042206 
	C1308.680908,422.879303 1305.950806,426.133270 1302.934814,429.096313 
	C1275.740112,455.812866 1231.724121,445.263245 1221.198853,406.876404 
	C1218.281738,396.237274 1217.140381,385.013336 1216.161987,373.971100 
	C1215.356445,364.880554 1215.997437,355.661896 1215.997437,346.000000 
M1279.557495,386.709961 
	C1282.469360,393.499603 1287.620972,396.558350 1294.977173,396.084290 
	C1302.174072,395.620575 1306.871094,391.647095 1308.901611,385.096558 
	C1310.509644,379.909607 1311.747070,374.392792 1311.858643,368.995758 
	C1312.255249,349.839935 1312.181885,330.672424 1312.117798,311.509888 
	C1312.084839,301.647888 1311.281372,291.841827 1306.817261,282.793304 
	C1304.286377,277.663330 1300.244507,274.274445 1294.282959,274.367035 
	C1287.821167,274.467407 1282.473389,277.109772 1279.975830,283.368988 
	C1278.458862,287.170410 1277.082520,291.338623 1277.025879,295.361450 
	C1276.671997,320.512085 1276.564941,345.669189 1276.734619,370.821716 
	C1276.768799,375.892303 1278.340332,380.952515 1279.557495,386.709961 
z"/>
<path fill="#020100" opacity="1.000000" stroke="none" 
	d="
M1128.307129,378.141113 
	C1128.639038,374.046204 1128.893555,370.402374 1129.168701,366.463257 
	C1148.691895,366.463257 1168.123169,366.463257 1188.130859,366.463257 
	C1189.152832,375.806458 1188.603027,385.168610 1186.566040,394.405304 
	C1181.894287,415.587585 1169.380249,430.387970 1148.884399,437.373291 
	C1121.915771,446.564667 1094.556885,446.886078 1067.656616,437.054535 
	C1042.948608,428.024261 1029.542236,408.090271 1029.478760,381.804596 
	C1029.407837,352.471680 1029.230835,323.136078 1029.540649,293.806274 
	C1029.760986,272.965363 1035.586914,254.320908 1053.411743,241.385345 
	C1063.470947,234.085327 1075.000366,230.355576 1087.156494,228.630569 
	C1109.127441,225.512772 1130.969238,225.341049 1152.261841,232.851746 
	C1177.457520,241.739243 1190.168213,259.794708 1190.168335,286.531738 
	C1190.168457,305.513000 1190.168335,324.494293 1190.168335,343.954803 
	C1156.851807,343.954803 1123.783081,343.954803 1090.002441,343.954803 
	C1090.002441,349.508484 1089.941528,354.598022 1090.016113,359.685577 
	C1090.142822,368.336700 1089.645264,377.074951 1090.708984,385.614777 
	C1092.064087,396.494629 1098.650024,401.437805 1109.565308,401.462128 
	C1120.402832,401.486328 1125.225708,397.373047 1127.433838,386.030609 
	C1127.908691,383.591919 1127.975220,381.073730 1128.307129,378.141113 
M1090.000000,300.395325 
	C1090.000000,302.165863 1090.000000,303.936401 1090.000000,305.655579 
	C1103.799805,305.655579 1117.028687,305.655579 1130.101074,305.655579 
	C1130.101074,297.824371 1130.677002,290.283264 1129.961670,282.866699 
	C1128.970459,272.589203 1120.943237,265.855499 1110.656372,265.548553 
	C1099.807373,265.224854 1092.729858,270.885742 1091.026489,282.006653 
	C1090.149658,287.730438 1090.308960,293.612885 1090.000000,300.395325 
z"/>
<path fill="#020100" opacity="1.000000" stroke="none" 
	d="
M719.080750,232.866364 
	C741.754700,242.945984 752.738464,261.274658 753.656250,284.572815 
	C754.926941,316.826355 755.050659,349.197876 753.884338,381.454498 
	C752.667236,415.115295 733.781494,435.082092 699.982361,440.634094 
	C678.740540,444.123413 657.476807,443.795898 636.939209,436.273224 
	C611.880066,427.094299 598.325684,407.717316 598.192444,380.994934 
	C598.044617,351.342529 597.866394,321.684875 598.266052,292.037079 
	C598.514282,273.617493 602.808655,256.342377 617.040771,243.137238 
	C628.813354,232.214233 643.435669,227.932312 658.863220,226.228500 
	C678.724609,224.035019 698.409058,224.815140 717.382874,232.073013 
	C717.846252,232.250259 718.274780,232.518707 719.080750,232.866364 
M695.160034,363.499969 
	C695.160034,340.008362 695.274048,316.515747 695.067322,293.025970 
	C695.024048,288.106232 694.410522,283.009949 692.979309,278.325104 
	C690.634460,270.649200 684.845703,267.051208 676.661560,267.002045 
	C668.379883,266.952332 662.907166,270.483124 660.212158,278.141510 
	C659.121582,281.240570 658.280823,284.617584 658.260742,287.873840 
	C658.068848,319.026550 657.886047,350.182251 658.170776,381.332794 
	C658.236816,388.557922 660.272766,395.727905 668.179260,398.900116 
	C682.075134,404.475311 694.190247,396.887115 695.034241,381.987976 
	C695.363464,376.174896 695.134644,370.330170 695.160034,363.499969 
z"/>
<path fill="#020100" opacity="1.000000" stroke="none" 
	d="
M798.997375,345.000000 
	C798.997375,320.867889 798.997375,297.235779 798.997375,273.143219 
	C790.832764,273.143219 782.920349,273.143219 774.738159,273.143219 
	C774.738159,258.928894 774.738159,245.174362 774.738159,231.042389 
	C782.641968,231.042389 790.407288,231.042389 798.726685,231.042389 
	C798.726685,211.464478 798.726685,192.246964 798.726685,172.748657 
	C818.701538,172.748657 838.120239,172.748657 858.013367,172.748657 
	C858.013367,191.930252 858.013367,211.001022 858.013367,230.712891 
	C867.670837,230.712891 876.881104,230.712891 886.280029,230.712891 
	C886.280029,245.113480 886.280029,258.868317 886.280029,273.004028 
	C876.926819,273.004028 867.825134,273.004028 858.168335,273.004028 
	C858.168335,274.988312 858.168335,276.598114 858.168335,278.207886 
	C858.168335,312.192657 858.161926,346.177460 858.171692,380.162231 
	C858.175232,392.519989 863.070618,396.660065 875.312012,394.870728 
	C878.747864,394.368530 882.233032,394.203156 886.131348,393.843018 
	C886.131348,407.913361 886.131348,421.604889 886.131348,435.758026 
	C868.152466,437.555206 850.180847,440.365570 832.122314,436.879761 
	C811.438477,432.887207 799.242249,417.518799 799.029724,395.476959 
	C798.869141,378.819427 798.997559,362.159088 798.997375,345.000000 
z"/>
<path fill="#020100" opacity="1.000000" stroke="none" 
	d="
M947.000000,435.841370 
	C934.861328,435.841370 923.222717,435.841370 911.208984,435.841370 
	C911.208984,367.518005 911.208984,299.493958 911.208984,231.150314 
	C929.552185,231.150314 947.967529,231.150314 966.803162,231.150314 
	C966.803162,240.217102 966.803162,249.462097 966.803162,258.707092 
	C975.842407,238.551392 989.545288,225.385590 1013.217590,225.301788 
	C1013.217590,247.223801 1013.217590,268.962616 1013.217590,289.665710 
	C1004.648560,289.665710 996.201965,289.195557 987.829651,289.783112 
	C977.031677,290.540833 972.868225,294.840851 971.230042,305.517914 
	C970.853638,307.971405 970.857727,310.498627 970.856323,312.992004 
	C970.834900,351.975830 970.841370,390.959686 970.841370,429.943512 
	C970.841370,431.730530 970.841370,433.517578 970.841370,435.841400 
	C962.727722,435.841400 955.113892,435.841400 947.000000,435.841370 
z"/>
<path fill="#FEFEFE" opacity="1.000000" stroke="none" 
	d="
M1895.001587,300.000000 
	C1895.001709,324.495361 1894.990479,348.490723 1895.007690,372.486084 
	C1895.014038,381.374695 1900.750977,387.078339 1909.683228,387.160706 
	C1918.755493,387.244385 1924.795654,381.400391 1924.817749,372.359680 
	C1924.860718,354.718903 1924.830322,337.078003 1924.830322,319.134155 
	C1943.800537,319.134155 1962.533813,319.134155 1981.838623,319.134155 
	C1981.838623,328.420380 1981.940552,337.698517 1981.804199,346.973114 
	C1981.706787,353.610535 1981.811890,360.317322 1980.882324,366.859009 
	C1979.749390,374.832367 1975.694946,381.489746 1969.252563,386.568817 
	C1949.772583,401.926056 1930.355835,417.364044 1910.790649,432.611664 
	C1909.017212,433.993896 1906.354858,434.889038 1904.100952,434.898041 
	C1885.651489,434.971741 1868.415283,430.932831 1854.025513,418.588348 
	C1842.774902,408.936829 1837.171753,396.546356 1837.167603,381.700714 
	C1837.152344,326.211426 1837.290527,270.721680 1837.078735,215.233200 
	C1837.019043,199.621643 1842.989258,187.194611 1854.502197,177.113190 
	C1885.139160,150.285538 1940.823486,152.236603 1968.743164,181.165085 
	C1977.425903,190.161392 1981.978760,200.863358 1981.879272,213.553207 
	C1981.725342,233.181351 1981.838623,252.811584 1981.838623,272.720398 
	C1962.776245,272.720398 1944.044556,272.720398 1924.830322,272.720398 
	C1924.830322,259.228363 1924.830200,245.792404 1924.830078,232.356430 
	C1924.830078,228.023926 1924.897583,223.690155 1924.815796,219.359207 
	C1924.654541,210.829041 1918.251465,204.915131 1909.553833,205.172256 
	C1900.827759,205.430222 1895.021484,211.095688 1895.012451,219.514816 
	C1894.983398,246.176514 1895.001709,272.838257 1895.001587,300.000000 
z"/>
<path fill="#FEFEFE" opacity="1.000000" stroke="none" 
	d="
M2179.000488,166.490479 
	C2219.455811,166.490494 2259.410889,166.490494 2299.601318,166.490494 
	C2299.601318,183.892624 2299.601318,200.791763 2299.601318,218.172974 
	C2286.490967,218.172974 2273.583740,218.172974 2260.339600,218.172974 
	C2260.339600,289.905792 2260.339600,361.158447 2260.339600,432.988861 
	C2254.570801,432.988861 2249.124023,433.123413 2243.693115,432.889832 
	C2242.410645,432.834656 2241.046631,431.703094 2239.947510,430.792603 
	C2226.867188,419.959229 2213.751221,409.164825 2200.876465,398.091125 
	C2199.197266,396.647003 2197.961914,393.698700 2197.955566,391.443024 
	C2197.796143,335.787689 2197.830811,280.131775 2197.830811,224.475937 
	C2197.830811,222.648636 2197.830811,220.821320 2197.830811,218.455902 
	C2184.290527,218.455902 2170.905518,218.455902 2157.263184,218.455902 
	C2157.263184,200.987717 2157.263184,184.054779 2157.263184,166.490463 
	C2164.294678,166.490463 2171.397705,166.490463 2179.000488,166.490479 
z"/>
<path fill="#FEFEFE" opacity="1.000000" stroke="none" 
	d="
M2159.981934,313.982300 
	C2164.535156,334.112671 2169.040039,353.827118 2173.544922,373.541595 
	C2173.187500,373.799774 2172.829834,374.057983 2172.472412,374.316162 
	C2157.488037,362.095398 2142.491699,349.889160 2127.522705,337.649811 
	C2112.452393,325.327576 2097.408691,312.972351 2081.940674,300.293182 
	C2053.021973,322.244598 2024.203369,344.120056 1994.331909,366.794678 
	C2010.113525,299.084015 2025.602539,232.628143 2041.126221,166.024109 
	C2069.416260,166.024109 2097.541992,166.024109 2126.201660,166.024109 
	C2137.434082,215.154343 2148.683838,264.360382 2159.981934,313.982300 
M2086.459717,229.022308 
	C2085.508545,224.291443 2084.557129,219.560577 2083.605957,214.829712 
	C2083.286133,214.820084 2082.966064,214.810440 2082.646240,214.800797 
	C2077.545898,238.730576 2072.445557,262.660339 2067.306152,286.773804 
	C2077.680664,286.773804 2087.753174,286.773804 2097.999512,286.773804 
	C2094.198730,267.625305 2090.448486,248.732605 2086.459717,229.022308 
z"/>
<path fill="#FDCC11" opacity="1.000000" stroke="none" 
	d="
M2123.151855,352.851135 
	C2155.175781,379.348663 2186.913574,405.634369 2219.472656,432.600220 
	C2123.942627,432.600220 2029.602661,432.600220 1934.029175,432.600220 
	C1983.944946,394.478851 2033.062866,356.966827 2082.485840,319.221832 
	C2095.999756,330.405487 2109.433105,341.522400 2123.151855,352.851135 
z"/>
<path fill="#EBEBEB" opacity="1.000000" stroke="none" 
	d="
M2331.020020,199.300476 
	C2321.373291,200.848297 2314.171875,197.303909 2310.924072,189.714096 
	C2307.693359,182.164169 2310.026123,173.512787 2316.562500,168.802322 
	C2322.786133,164.317276 2331.973145,164.652100 2337.841064,169.770248 
	C2342.572998,173.897736 2344.532471,179.239685 2343.501465,185.431747 
	C2342.335938,192.434082 2338.341553,197.151184 2331.020020,199.300476 
M2337.781982,174.950897 
	C2333.217041,169.232132 2327.861084,167.384369 2322.130127,169.551346 
	C2316.634277,171.629456 2312.992676,177.185196 2313.195801,183.182343 
	C2313.409912,189.516998 2317.459229,194.819061 2323.395264,196.375839 
	C2328.551270,197.727982 2333.032959,196.260757 2336.400146,192.293198 
	C2340.681396,187.248642 2341.235352,181.577805 2337.781982,174.950897 
z"/>
<path fill="#FECC11" opacity="1.000000" stroke="none" 
	d="
M1279.380371,386.363739 
	C1278.340332,380.952515 1276.768799,375.892303 1276.734619,370.821716 
	C1276.564941,345.669189 1276.671997,320.512085 1277.025879,295.361450 
	C1277.082520,291.338623 1278.458862,287.170410 1279.975830,283.368988 
	C1282.473389,277.109772 1287.821167,274.467407 1294.282959,274.367035 
	C1300.244507,274.274445 1304.286377,277.663330 1306.817261,282.793304 
	C1311.281372,291.841827 1312.084839,301.647888 1312.117798,311.509888 
	C1312.181885,330.672424 1312.255249,349.839935 1311.858643,368.995758 
	C1311.747070,374.392792 1310.509644,379.909607 1308.901611,385.096558 
	C1306.871094,391.647095 1302.174072,395.620575 1294.977173,396.084290 
	C1287.620972,396.558350 1282.469360,393.499603 1279.380371,386.363739 
z"/>
<path fill="#FECC11" opacity="1.000000" stroke="none" 
	d="
M1090.000000,299.909485 
	C1090.308960,293.612885 1090.149658,287.730438 1091.026489,282.006653 
	C1092.729858,270.885742 1099.807373,265.224854 1110.656372,265.548553 
	C1120.943237,265.855499 1128.970459,272.589203 1129.961670,282.866699 
	C1130.677002,290.283264 1130.101074,297.824371 1130.101074,305.655579 
	C1117.028687,305.655579 1103.799805,305.655579 1090.000000,305.655579 
	C1090.000000,303.936401 1090.000000,302.165863 1090.000000,299.909485 
z"/>
<path fill="#FECC11" opacity="1.000000" stroke="none" 
	d="
M695.160034,363.999939 
	C695.134644,370.330170 695.363464,376.174896 695.034241,381.987976 
	C694.190247,396.887115 682.075134,404.475311 668.179260,398.900116 
	C660.272766,395.727905 658.236816,388.557922 658.170776,381.332794 
	C657.886047,350.182251 658.068848,319.026550 658.260742,287.873840 
	C658.280823,284.617584 659.121582,281.240570 660.212158,278.141510 
	C662.907166,270.483124 668.379883,266.952332 676.661560,267.002045 
	C684.845703,267.051208 690.634460,270.649200 692.979309,278.325104 
	C694.410522,283.009949 695.024048,288.106232 695.067322,293.025970 
	C695.274048,316.515747 695.160034,340.008362 695.160034,363.999939 
z"/>
<path fill="#040404" opacity="1.000000" stroke="none" 
	d="
M2086.579102,229.431091 
	C2090.448486,248.732605 2094.198730,267.625305 2097.999512,286.773804 
	C2087.753174,286.773804 2077.680664,286.773804 2067.306152,286.773804 
	C2072.445557,262.660339 2077.545898,238.730576 2082.646240,214.800797 
	C2082.966064,214.810440 2083.286133,214.820084 2083.605957,214.829712 
	C2084.557129,219.560577 2085.508545,224.291443 2086.579102,229.431091 
z"/>
<path fill="#0A0A0A" opacity="1.000000" stroke="none" 
	d="
M2337.945068,175.300690 
	C2341.235352,181.577805 2340.681396,187.248642 2336.400146,192.293198 
	C2333.032959,196.260757 2328.551270,197.727982 2323.395264,196.375839 
	C2317.459229,194.819061 2313.409912,189.516998 2313.195801,183.182343 
	C2312.992676,177.185196 2316.634277,171.629456 2322.130127,169.551346 
	C2327.861084,167.384369 2333.217041,169.232132 2337.945068,175.300690 
M2331.694824,184.192612 
	C2335.347656,174.420151 2332.748047,171.851730 2320.929688,173.556168 
	C2319.455566,182.156219 2320.154541,191.295425 2322.900146,193.305023 
	C2323.115234,190.174011 2323.310547,187.332397 2323.532715,184.102661 
	C2327.114258,184.738983 2329.925537,185.263977 2330.119385,189.641663 
	C2330.177002,190.939240 2331.967285,192.159973 2332.963623,193.415924 
	C2333.363281,193.097488 2333.762695,192.779037 2334.162354,192.460602 
	C2333.463135,189.922958 2332.763672,187.385300 2331.694824,184.192612 
z"/>
<path fill="#DEDEDE" opacity="1.000000" stroke="none" 
	d="
M2331.879639,184.520142 
	C2332.763672,187.385300 2333.463135,189.922958 2334.162354,192.460602 
	C2333.762695,192.779037 2333.363281,193.097488 2332.963623,193.415924 
	C2331.967285,192.159973 2330.177002,190.939240 2330.119385,189.641663 
	C2329.925537,185.263977 2327.114258,184.738983 2323.532715,184.102661 
	C2323.310547,187.332397 2323.115234,190.174011 2322.900146,193.305023 
	C2320.154541,191.295425 2319.455566,182.156219 2320.929688,173.556168 
	C2332.748047,171.851730 2335.347656,174.420151 2331.879639,184.520142 
M2327.964844,181.694885 
	C2328.670166,180.425964 2329.375732,179.157043 2330.081055,177.888092 
	C2328.105957,176.939407 2326.130859,175.990723 2323.474609,174.714890 
	C2323.474609,177.970428 2323.474609,179.849472 2323.474609,181.899460 
	C2324.863037,181.899460 2325.996826,181.899460 2327.964844,181.694885 
z"/>
<path fill="#0E0E0E" opacity="1.000000" stroke="none" 
	d="
M2327.547852,181.797180 
	C2325.996826,181.899460 2324.863037,181.899460 2323.474609,181.899460 
	C2323.474609,179.849472 2323.474609,177.970428 2323.474609,174.714890 
	C2326.130859,175.990723 2328.105957,176.939407 2330.081055,177.888092 
	C2329.375732,179.157043 2328.670166,180.425964 2327.547852,181.797180 
z"/>
</svg>