<?xml version="1.0" standalone="no"?>
<!DOCTYPE svg PUBLIC "-//W3C//DTD SVG 20010904//EN"
 "http://www.w3.org/TR/2001/REC-SVG-20010904/DTD/svg10.dtd">
<svg version="1.0" xmlns="http://www.w3.org/2000/svg"
 width="2894.000000pt" height="768.000000pt" viewBox="0 0 2894.000000 768.000000"
 preserveAspectRatio="xMidYMid meet">

<g transform="translate(0.000000,768.000000) scale(0.100000,-0.100000)"
fill="#000000" stroke="none">
<path d="M21400 3845 l0 -3465 3470 0 3470 0 0 3465 0 3465 -3470 0 -3470 0 0
-3465z m1820 1599 c319 -60 561 -251 625 -494 12 -44 15 -135 15 -442 l0 -388
-335 0 -335 0 0 336 c0 390 1 387 -83 429 -82 40 -168 28 -224 -32 l-33 -34 0
-971 0 -970 22 -30 c41 -59 149 -85 221 -54 18 7 46 28 62 45 l30 32 3 355 3
354 335 0 335 0 -3 -287 c-3 -273 -5 -291 -27 -346 -12 -32 -37 -76 -55 -99
-17 -23 -200 -174 -406 -336 l-375 -294 -125 5 c-301 12 -546 151 -649 368
-23 48 -45 112 -51 149 -6 41 -10 441 -10 1095 0 1134 -1 1109 62 1228 42 79
142 185 230 243 87 58 216 111 327 134 112 24 327 26 441 4z m2334 -72 c3 -5
126 -543 275 -1198 148 -654 272 -1201 276 -1216 4 -16 3 -28 -2 -28 -5 0
-191 149 -414 331 -541 444 -639 523 -648 527 -5 1 -237 -171 -517 -382 -279
-212 -510 -383 -513 -381 -2 3 119 533 270 1180 l273 1175 498 0 c273 0 499
-4 502 -8z m2447 -15 c125 -66 145 -235 39 -331 -91 -82 -226 -65 -297 37 -24
35 -28 50 -28 113 0 64 3 77 30 115 38 54 103 89 165 89 30 0 63 -8 91 -23z
m-411 -292 l0 -305 -230 0 -230 0 0 -1265 0 -1265 -102 0 -103 0 -265 223
-265 222 -3 1043 -2 1042 -235 0 -235 0 0 305 0 305 835 0 835 0 0 -305z
m-2168 -1802 c204 -170 509 -422 677 -562 168 -139 361 -299 429 -354 98 -81
119 -103 105 -109 -22 -8 -3268 -8 -3304 1 -23 5 68 78 840 668 476 365 870
663 874 663 5 0 175 -138 379 -307z"/>
<path d="M24957 4378 c-48 -227 -87 -416 -87 -420 0 -5 79 -8 175 -8 152 0
175 2 175 16 0 26 -162 809 -169 817 -4 4 -46 -179 -94 -405z"/>
<path d="M27829 5317 c-39 -26 -79 -97 -79 -142 1 -45 34 -109 70 -135 49 -35
125 -39 170 -8 56 38 82 92 76 157 -5 60 -25 94 -76 129 -45 30 -115 30 -161
-1z m139 -43 c26 -18 29 -60 6 -86 -12 -13 -14 -21 -6 -31 6 -7 15 -32 21 -55
9 -40 8 -43 -12 -40 -14 2 -24 15 -31 43 -10 35 -16 40 -44 43 -32 3 -32 3
-32 -42 0 -39 -3 -46 -20 -46 -19 0 -20 7 -20 108 0 60 3 112 7 115 13 13 109
7 131 -9z"/>
<path d="M27870 5225 c0 -30 3 -35 24 -35 36 0 56 10 56 29 0 25 -20 41 -52
41 -25 0 -28 -3 -28 -35z"/>
<path d="M6119 5489 c-278 -41 -489 -161 -615 -350 -106 -160 -144 -307 -144
-559 0 -299 76 -497 264 -685 107 -107 243 -201 525 -365 363 -210 442 -300
443 -500 1 -109 -25 -182 -87 -247 -60 -61 -108 -78 -206 -70 -80 7 -133 28
-177 70 -72 69 -92 142 -92 345 l0 152 -332 1 c-183 0 -346 2 -361 4 l-28 4 2
-237 c1 -199 4 -249 20 -312 55 -213 192 -382 394 -487 181 -93 339 -123 615
-119 264 3 403 35 570 129 89 50 219 176 269 259 96 165 141 361 136 603 -5
201 -26 318 -83 453 -42 99 -92 169 -185 258 -101 97 -208 170 -442 304 -455
259 -529 331 -529 515 -1 167 87 265 238 265 175 0 260 -101 272 -325 3 -49 7
-100 10 -112 l4 -23 357 0 356 0 -6 143 c-6 166 -29 269 -88 395 -105 227
-289 384 -532 457 -137 41 -410 57 -568 34z"/>
<path d="M9980 4955 l0 -345 -140 0 -140 0 0 -247 0 -248 128 2 c70 1 133 -1
139 -5 9 -6 13 -202 15 -777 l3 -770 27 -69 c69 -178 190 -274 393 -311 82
-15 346 -11 500 8 l100 12 3 243 2 243 -123 -3 c-105 -3 -127 0 -151 15 -57
38 -56 27 -56 752 l0 666 165 -3 165 -3 0 248 0 247 -165 0 -165 0 0 345 0
345 -350 0 -350 0 0 -345z"/>
<path d="M8385 4669 c-338 -28 -557 -153 -670 -382 -84 -168 -85 -185 -85
-902 0 -387 3 -641 10 -675 42 -223 155 -371 362 -476 143 -72 312 -104 553
-104 501 0 778 175 877 554 21 77 22 108 26 646 2 383 0 597 -8 664 -38 325
-198 529 -490 625 -140 46 -378 67 -575 50z m281 -519 c21 -13 43 -42 61 -78
l28 -57 3 -594 c2 -398 -1 -612 -8 -647 -22 -104 -103 -157 -229 -147 -104 7
-161 54 -181 149 -7 33 -10 249 -8 644 l3 595 28 57 c18 36 40 64 62 78 68 42
172 42 241 0z"/>
<path d="M12370 4663 c-175 -35 -314 -160 -387 -346 l-28 -72 -3 183 -2 182
-326 -2 -325 -3 1 -1194 c0 -657 2 -1196 4 -1199 3 -2 159 -3 348 -3 l343 1 5
782 5 783 22 42 c48 89 113 109 331 100 l142 -6 0 385 0 384 -36 -3 c-20 -1
-62 -7 -94 -14z"/>
<path d="M13470 4653 c-19 -2 -84 -13 -145 -24 -371 -69 -578 -279 -625 -630
-7 -57 -10 -284 -7 -694 4 -675 1 -643 72 -792 27 -59 54 -95 118 -158 70 -70
98 -90 187 -133 340 -166 867 -147 1167 40 201 126 312 356 315 654 0 52 -2
97 -5 100 -4 5 -689 6 -693 1 -1 -1 -5 -50 -8 -110 -8 -126 -26 -194 -63 -238
-37 -43 -80 -59 -160 -59 -80 0 -141 26 -179 75 -45 59 -54 119 -54 368 l0
227 590 0 590 0 0 398 c0 311 -3 410 -15 458 -62 265 -268 432 -615 500 -81
16 -383 27 -470 17z m287 -478 c88 -52 113 -121 113 -312 l0 -133 -241 0 -242
0 6 138 c7 191 38 266 127 313 69 35 169 33 237 -6z"/>
<path d="M15355 4650 c-257 -57 -420 -274 -465 -620 -5 -41 -10 -321 -10 -622
0 -610 7 -711 61 -873 55 -166 151 -290 276 -358 113 -61 279 -82 397 -52 123
32 287 146 357 249 13 20 27 36 32 36 4 0 7 -232 7 -515 l0 -515 350 0 350 0
0 1605 0 1605 -325 0 -324 0 -3 -147 -3 -146 -39 59 c-127 191 -303 292 -521
300 -55 2 -118 -1 -140 -6z m497 -559 c39 -15 87 -72 109 -130 44 -115 51
-215 46 -651 -4 -383 -5 -409 -26 -472 -26 -79 -60 -124 -116 -149 -54 -25
-111 -24 -165 4 -56 28 -95 100 -110 202 -13 94 -13 904 0 981 14 76 36 133
63 163 46 50 140 75 199 52z"/>
</g>
</svg>
